<?xml version="1.0" encoding="UTF-8" standalone="no"?>
<svg width="207px" height="40px" viewBox="0 0 207 40" version="1.1" xmlns="http://www.w3.org/2000/svg" xmlns:xlink="http://www.w3.org/1999/xlink">
    <!-- Generator: Sketch 41.2 (35397) - http://www.bohemiancoding.com/sketch -->
    <title>logo-quanser</title>
    <desc>Created with Sketch.</desc>
    <defs></defs>
    <g id="Symbols" stroke="none" stroke-width="1" fill="none" fill-rule="evenodd">
        <g id="logos/logo-quanser">
            <g id="logo-quanser">
                <path d="M34.534943,27.8507722 C31.2495228,23.5254403 26.6034333,21.4899744 24.1552757,23.3085028 C22.2608632,24.7198584 22.2493185,28.0278559 23.8662543,31.4576732 C24.952266,31.0328317 25.9590753,30.467705 26.8983613,29.8079919 C26.1719819,28.2613991 26.0065967,26.9753173 26.6034333,26.5304161 C27.5096959,25.8556915 29.8139469,27.3745194 31.748766,29.9218409 C33.6818399,32.4726164 34.5119877,35.0797185 33.6072018,35.7565687 C33.0490267,36.1709153 31.965834,35.7559045 30.7662543,34.7865275 C29.7837426,35.4854301 28.7308885,36.0912077 27.623264,36.5964209 C30.6109372,39.382998 34.060266,40.4597146 36.049587,38.9764893 C38.4992212,37.1587579 37.8187523,32.1766355 34.534943,27.8507722 L34.534943,27.8507722 Z" id="Fill-1" fill="#E21A23"></path>
                <path d="M29.5364165,28.7474825 C26.9141481,31.4705592 23.223185,33.1744416 19.1192959,33.1744416 C11.1649652,33.1744416 4.71655272,26.7937169 4.71655272,18.9219289 C4.71655272,11.0502739 11.1649652,4.66822065 19.1192959,4.66822065 C27.0738951,4.66822065 33.5251267,11.0502739 33.5251267,18.9219289 C33.5251267,20.8515166 33.1309944,22.6863852 32.4247512,24.3625028 C33.4043095,25.1518735 34.352187,26.1204535 35.2124049,27.2477844 C35.3951072,27.491291 35.5677414,27.7361262 35.7374224,27.9830868 C37.2520663,25.2792728 38.1308095,22.176788 38.1308095,18.8665322 C38.1308095,8.44675856 29.594006,1.32845969e-05 19.0662706,1.32845969e-05 C8.53853521,1.32845969e-05 -1.34241236e-05,8.44675856 -1.34241236e-05,18.8665322 C-1.34241236e-05,29.28697 8.53853521,37.7351766 19.0662706,37.7351766 C24.2271753,37.7351766 28.90065,35.6990464 32.3341383,32.4015438 C31.9974613,31.7901866 31.5862804,31.1530573 31.1071733,30.5197806 C30.5965196,29.8491742 30.0643874,29.2528286 29.5364165,28.7474825" id="Fill-3" fill="#E21A23"></path>
                <path d="M63.7304405,15.312132 C63.7562148,14.4793206 63.8469619,13.6716171 63.8469619,12.8423926 L63.8469619,9.80473663 C63.8469619,6.66465645 62.4747479,6.32364084 58.1018393,6.32364084 C54.1850825,6.32364084 52.3841019,6.53074771 52.3841019,9.80473663 L52.3841019,14.4531499 C52.3841019,18.0288321 53.6369755,18.2060486 58.1018393,18.2060486 C59.7503218,18.2060486 61.4417615,18.2615782 62.6630883,17.4927986 L57.0316681,14.7563044 L58.8425825,12.8004132 L63.7304405,15.312132 Z M68.2843062,20.541215 L66.2979385,19.4096331 C64.1245728,21.0849536 60.7326992,21.0450998 58.1018393,21.0450998 C51.0075922,21.0450998 48.19403,20.1696449 47.9812576,14.4531499 L47.9812576,9.80473663 C47.9812576,4.41690265 51.3154074,3.49388885 58.1018393,3.49388885 C63.5175339,3.49388885 68.2225553,3.69594757 68.2555786,9.80473663 L68.2555786,14.4531499 C68.2555786,14.7563044 68.2225553,16.5078786 67.8241272,17.4537419 L70.0565591,18.5776188 L68.2843062,20.541215 Z" id="Fill-6" fill="#221F20"></path>
                <path d="M92.3562047,4.14366506 L92.3562047,15.598973 C92.3562047,20.0871741 88.6135588,20.3909928 83.4208389,20.3909928 C78.3893428,20.3909928 74.534337,20.1141418 74.534337,15.598973 L74.534337,4.14366506 L78.6524556,4.14366506 L78.6524556,15.598973 C78.6524556,17.2530382 79.4537416,17.7505463 83.4208389,17.7505463 C87.2169128,17.7505463 88.2481541,17.3427092 88.2481541,15.598973 L88.2481541,4.14366506 L92.3562047,4.14366506 Z" id="Fill-8" fill="#221F20"></path>
                <path d="M107.996102,6.57206281 L107.945896,6.57206281 L104.259094,14.9320597 L111.707335,14.9320597 L107.996102,6.57206281 Z M103.321285,17.2794479 L101.963434,20.325606 L97.6755006,20.325606 L104.836063,4.20979578 L110.931958,4.20979578 L118.233339,20.325606 L114.031722,20.325606 L112.630646,17.2794479 L103.321285,17.2794479 Z" id="Fill-10" fill="#221F20"></path>
                <polygon id="Fill-12" fill="#221F20" points="139.01979 4.36498644 143.041658 4.36498644 143.041658 20.3256326 136.376178 20.3256326 127.483769 6.98138781 127.348588 6.98138781 127.678016 20.3256326 123.666217 20.3256326 123.666217 4.36498644 130.301627 4.36498644 139.251491 17.7049802 139.360763 17.7049802"></polygon>
                <path d="M152.515103,15.1897277 L152.515103,15.939776 C152.515103,17.7883277 153.516274,17.9206423 157.155286,17.9206423 C160.734292,17.9206423 161.226152,17.4045357 161.226152,15.532736 C161.226152,13.2289212 159.675531,13.5356625 156.607313,13.407599 C152.189971,13.1903959 148.693255,13.3164667 148.693255,8.63112219 C148.693255,4.20628865 152.240311,4.07530252 157.155286,4.07530252 C161.333947,4.07530252 164.748776,4.1813136 164.748776,8.42042849 L164.748776,8.9342767 L160.817656,8.9342767 L160.817656,8.42042849 C160.817656,6.67948206 159.90844,6.61332477 157.155286,6.61332477 C153.255846,6.61332477 152.622899,6.91581504 152.622899,8.63112219 C152.622899,10.6082688 153.146574,10.6773487 157.135284,10.8709052 C163.444086,11.1727313 165.163045,11.4332422 165.163045,15.532736 C165.163045,20.069293 162.431504,20.4558748 157.155286,20.4558748 C152.622899,20.4558748 148.583982,20.566934 148.583982,15.939776 L148.583982,15.1897277 L152.515103,15.1897277 Z" id="Fill-14" fill="#221F20"></path>
                <polygon id="Fill-16" fill="#221F20" points="174.586109 10.8723665 184.173082 10.8723665 184.173082 13.4103888 174.586109 13.4103888 174.586109 17.6800582 184.769918 17.6800582 184.769918 20.3255529 170.662237 20.3255529 170.662237 4.20987549 184.701053 4.20987549 184.701053 6.85111905 174.586109 6.85111905"></polygon>
                <path d="M199.323871,12.3527356 C202.216635,12.3527356 202.93147,11.9086315 202.93147,9.54078497 C202.93147,7.26101529 202.409272,6.85105263 199.594367,6.85105263 L194.125513,6.85105263 L194.125513,12.3527356 L199.323871,12.3527356 Z M194.125513,14.997566 L194.125513,20.3256193 L190.197211,20.3256193 L190.197211,4.20980906 L200.663196,4.20980906 C205.143766,4.29815163 206.862591,5.39054404 206.862591,9.04101843 C206.862591,11.4331758 206.701635,13.1719967 203.226398,13.5790367 L203.226398,13.665918 C206.011098,13.8623972 206.701635,15.0459219 206.701635,17.3199792 L206.701635,20.3256193 L202.761655,20.3256193 L202.761655,17.3199792 C202.761655,15.9612307 202.057023,15.021744 200.169859,14.997566 L194.125513,14.997566 Z" id="Fill-18" fill="#221F20"></path>
                <polygon id="Fill-20" fill="#221F20" points="48.8715992 35.7872429 49.8338405 35.7872429 49.8338405 28.1808812 48.8715992 28.1808812"></polygon>
                <polygon id="Fill-22" fill="#221F20" points="60.9901605 35.7986278 54.5014757 29.1211251 54.5014757 35.7986278 53.5450068 35.7986278 53.5450068 28.1916019 54.9690379 28.1916019 61.4590652 34.8726913 61.4590652 28.1916019 62.419964 28.1916019 62.419964 35.7986278"></polygon>
                <path d="M160.282476,35.8171199 C158.474515,35.8171199 157.75525,35.35734 157.75525,33.8199136 L157.75525,28.1240098 L158.716015,28.1240098 L158.716015,33.8029093 C158.716015,34.5380789 158.949192,34.9766035 160.253748,34.9766035 L163.576488,34.9766035 C164.878225,34.9766035 165.117175,34.5380789 165.117175,33.8029093 L165.117175,28.1240098 L166.077805,28.1240098 L166.077805,33.8199136 C166.077805,35.35734 165.352902,35.8171199 163.54776,35.8171199 L160.282476,35.8171199" id="Fill-23" fill="#221F20"></path>
                <path d="M171.657448,35.8570003 C169.744376,35.8570003 169.133042,34.9325252 169.133042,33.0078528 L169.133042,30.932533 C169.133042,29.0143701 169.744376,28.0869724 171.657448,28.0869724 L175.331094,28.0869724 C177.074619,28.0869724 177.555069,28.9539252 177.555069,29.9781676 L177.555069,30.6300428 L176.707872,30.6300428 L176.707872,30.2827834 C176.707872,28.993779 175.966995,28.9289501 175.085164,28.9289501 L171.75974,28.9289501 C170.833341,28.9289501 170.085215,29.2271893 170.085215,30.5446228 L170.085215,33.3986856 C170.085215,34.7182446 170.833341,35.0143583 171.75974,35.0143583 L175.111207,35.0143583 C176.402876,35.0143583 176.781168,34.7182446 176.781168,33.6954635 L176.781168,33.2185465 L177.678705,33.2185465 L177.678705,33.7310662 C177.678705,35.1053578 177.26296,35.8570003 175.279411,35.8570003 L171.657448,35.8570003" id="Fill-24" fill="#221F20"></path>
                <path d="M182.306041,33.3887222 L187.055765,33.3887222 L184.685333,29.0770734 L182.306041,33.3887222 L182.306041,33.3887222 Z M188.40207,35.8377376 L187.520374,34.2300357 L181.844385,34.2300357 L180.96685,35.8377376 L179.87802,35.8377376 L184.085409,28.2315088 L185.282169,28.2315088 L189.489559,35.8377376 L188.40207,35.8377376 Z" id="Fill-25" fill="#221F20"></path>
                <polygon id="Fill-26" fill="#221F20" points="193.08125 35.8441674 193.08125 29.0869571 189.489491 29.0869571 189.489491 28.235813 197.61941 28.235813 197.61941 29.0869571 194.031947 29.0869571 194.031947 35.8441674"></polygon>
                <polygon id="Fill-27" fill="#221F20" points="199.892168 35.8498664 199.892168 28.2428405 206.858349 28.2428405 206.858349 29.0926562 200.852932 29.0926562 200.852932 31.5111171 206.626782 31.5111171 206.626782 32.3524306 200.852932 32.3524306 200.852932 35.0114755 206.887076 35.0114755 206.887076 35.8498664"></polygon>
                <polygon id="Fill-28" fill="#221F20" points="73.1736677 35.8114075 66.6820296 29.1304509 66.6820296 35.8114075 65.716835 35.8114075 65.716835 28.2030532 67.158049 28.2030532 73.6482105 34.8854711 73.6482105 28.2030532 74.6048136 28.2030532 74.6048136 35.8114075"></polygon>
                <path d="M78.7934492,30.54174 L78.7934492,33.3951386 C78.7934492,34.7168232 79.5356691,35.0171879 80.4619337,35.0171879 L84.3471438,35.0171879 C85.2677702,35.0171879 86.0085134,34.7168232 86.0085134,33.3951386 L86.0085134,30.54174 C86.0085134,29.2251036 85.2677702,28.9325768 84.3471438,28.9325768 L80.4619337,28.9325768 C79.5356691,28.9325768 78.7934492,29.2251036 78.7934492,30.54174 M80.3627294,35.8570401 C78.4354278,35.8570401 77.8383228,34.9338935 77.8383228,33.0078926 L77.8383228,30.9311116 C77.8383228,29.0158712 78.4354278,28.0870122 80.3627294,28.0870122 L84.443529,28.0870122 C86.36385,28.0870122 86.9722313,29.0158712 86.9722313,30.9311116 L86.9722313,33.0078926 C86.9722313,34.9338935 86.36385,35.8570401 84.443529,35.8570401 L80.3627294,35.8570401" id="Fill-29" fill="#221F20"></path>
                <polygon id="Fill-30" fill="#221F20" points="92.6252778 35.8221016 88.6997953 28.2144115 89.7757389 28.2144115 93.2107039 34.8976265 96.6441922 28.2144115 97.7216125 28.2144115 93.7974724 35.8221016"></polygon>
                <path d="M100.460308,33.3872874 L105.21567,33.3872874 L102.833694,29.0770999 L100.460308,33.3872874 L100.460308,33.3872874 Z M106.550565,35.832716 L105.681756,34.2256783 L99.9928804,34.2256783 L99.1140029,35.832716 L98.0365827,35.832716 L102.236723,28.2264872 L103.440732,28.2264872 L107.638054,35.832716 L106.550565,35.832716 Z" id="Fill-31" fill="#221F20"></path>
                <polygon id="Fill-32" fill="#221F20" points="111.524525 35.8455888 111.524525 29.0869173 107.944446 29.0869173 107.944446 28.2357731 116.065638 28.2357731 116.065638 29.0869173 112.485424 29.0869173 112.485424 35.8455888"></polygon>
                <polygon id="Fill-33" fill="#221F20" points="118.74261 35.7765753 118.74261 28.1666268 125.704495 28.1666268 125.704495 29.0172396 119.703375 29.0172396 119.703375 31.4357004 125.462727 31.4357004 125.462727 32.277014 119.703375 32.277014 119.703375 34.9353946 125.743291 34.9353946 125.743291 35.7765753"></polygon>
                <polygon id="Fill-34" fill="#221F20" points="130.508802 32.6213906 131.606224 32.6213906 131.606224 31.3196329 130.508802 31.3196329"></polygon>
                <polygon id="Fill-35" fill="#221F20" points="135.858235 35.8235364 135.858235 28.2200973 142.82455 28.2200973 142.82455 29.0713743 136.821953 29.0713743 136.821953 31.4898352 142.585735 31.4898352 142.585735 32.3288903 136.821953 32.3288903 136.821953 34.9858097 142.856096 34.9858097 142.856096 35.8235364"></polygon>
                <path d="M147.293589,34.9922129 L152.153927,34.9922129 C153.324913,34.9922129 154.120293,34.7153619 154.120293,32.4371863 L154.120293,31.6641556 C154.120293,29.4769796 153.493252,29.0771132 152.31797,29.0771132 L147.293589,29.0771132 L147.293589,34.9922129 M146.335643,35.8299396 L146.335643,28.2265005 L152.057676,28.2265005 C154.442606,28.2265005 155.081326,29.0300858 155.081326,32.0285521 C155.081326,34.8200445 154.442606,35.8299396 152.031768,35.8299396 L146.335643,35.8299396" id="Fill-36" fill="#221F20"></path>
            </g>
        </g>
    </g>
</svg>